<svg width="105" height="105" viewBox="0 0 105 105" fill="none" xmlns="http://www.w3.org/2000/svg">
<circle cx="52.5" cy="52.5" r="52.5" fill="#F1F1F1"/>
<g clip-path="url(#clip0_360_3)">
<path d="M52.122 51.5303C55.6294 51.5303 58.6665 50.2723 61.148 47.7904C63.6296 45.3088 64.8875 42.2725 64.8875 38.7647C64.8875 35.2581 63.6296 32.2214 61.1476 29.7391C58.6657 27.258 55.629 26 52.122 26C48.6142 26 45.5779 27.258 43.0963 29.7395C40.6148 32.221 39.3564 35.2577 39.3564 38.7647C39.3564 42.2725 40.6148 45.3092 43.0967 47.7908C45.5787 50.2719 48.6154 51.5303 52.122 51.5303Z" fill="#ABABAE"/>
<path d="M74.4585 66.7542C74.3869 65.7215 74.2422 64.5949 74.0291 63.4053C73.8139 62.2068 73.537 61.0738 73.2054 60.0382C72.8629 58.9679 72.3971 57.9109 71.8213 56.898C71.2236 55.8467 70.5217 54.9312 69.734 54.1779C68.9103 53.3898 67.9018 52.7562 66.7357 52.294C65.5736 51.8343 64.2857 51.6014 62.908 51.6014C62.367 51.6014 61.8438 51.8233 60.8333 52.4812C60.2114 52.8868 59.484 53.3559 58.672 53.8746C57.9777 54.317 57.0372 54.7315 55.8755 55.1067C54.7421 55.4735 53.5913 55.6595 52.4554 55.6595C51.3196 55.6595 50.1692 55.4735 49.0346 55.1067C47.8741 54.7319 46.9335 54.3174 46.2401 53.8751C45.4358 53.3611 44.708 52.8921 44.0768 52.4808C43.0675 51.8229 42.5439 51.601 42.0028 51.601C40.6248 51.601 39.3373 51.8343 38.1756 52.2944C37.0102 52.7558 36.0014 53.3894 35.1769 54.1783C34.3896 54.932 33.6872 55.8471 33.0904 56.898C32.515 57.9109 32.0492 58.9675 31.7063 60.0387C31.3751 61.0742 31.0981 62.2068 30.883 63.4053C30.6699 64.5933 30.5252 65.7203 30.4536 66.7554C30.3832 67.7695 30.3477 68.8221 30.3477 69.8851C30.3477 72.6517 31.2271 74.8915 32.9614 76.5433C34.6743 78.1732 36.9407 79.0001 39.6968 79.0001H65.2165C67.9726 79.0001 70.2382 78.1736 71.9515 76.5433C73.6862 74.8927 74.5656 72.6525 74.5656 69.8847C74.5652 68.8168 74.5293 67.7635 74.4585 66.7542Z" fill="#ABABAE"/>
</g>
<defs>
<clipPath id="clip0_360_3">
<rect width="53" height="53" fill="white" transform="translate(26 26)"/>
</clipPath>
</defs>
</svg>
