<svg width="144" height="114" viewBox="0 0 144 114" fill="none" xmlns="http://www.w3.org/2000/svg">
<path d="M6.478 39V26.905H11.275L18.327 39H23.124L15.744 26.454C19.147 25.347 21.484 22.313 21.484 18.705C21.484 13.99 17.753 10.3 12.874 10.3H2.173V39H6.478ZM12.3 14.072C15.17 14.072 17.138 16.122 17.138 18.705C17.138 21.247 15.17 23.256 12.3 23.256H6.478V14.072H12.3ZM23.4517 28.545C23.4517 34.777 28.2897 39.451 34.5627 39.451C38.3757 39.451 41.4917 37.77 43.5827 34.982L40.5897 32.768C39.0317 34.859 36.9817 35.843 34.5627 35.843C31.0367 35.843 28.2077 33.301 27.6337 29.898H44.6487V28.545C44.6487 22.313 40.2207 17.68 34.1937 17.68C28.0847 17.68 23.4517 22.641 23.4517 28.545ZM34.1117 21.288C37.1867 21.288 39.7697 23.42 40.4667 26.618H27.7157C28.4537 23.42 31.0367 21.288 34.1117 21.288ZM53.4967 39H56.9817L65.8377 18.09H61.4917L55.2597 33.424L49.0277 18.09H44.5587L53.4967 39ZM65.7329 28.545C65.7329 34.777 70.5709 39.451 76.8439 39.451C80.6569 39.451 83.7729 37.77 85.8639 34.982L82.8709 32.768C81.3129 34.859 79.2629 35.843 76.8439 35.843C73.3179 35.843 70.4889 33.301 69.9149 29.898H86.9299V28.545C86.9299 22.313 82.5019 17.68 76.4749 17.68C70.3659 17.68 65.7329 22.641 65.7329 28.545ZM76.3929 21.288C79.4679 21.288 82.0509 23.42 82.7479 26.618H69.9969C70.7349 23.42 73.3179 21.288 76.3929 21.288ZM100.712 21.78V17.926H99.277C96.981 17.926 95.3 18.992 94.275 20.673V18.09H90.175V39H94.316V27.11C94.316 23.871 96.284 21.78 98.99 21.78H100.712ZM111.34 39.451C116.014 39.451 119.007 36.745 119.007 33.137C119.007 30.144 117.08 28.135 113.226 27.151L109.618 26.208C107.65 25.716 106.625 24.814 106.625 23.502C106.625 22.026 107.814 20.96 109.823 20.96C111.955 20.96 114.046 22.19 114.538 24.568H118.515C117.941 20.632 114.743 17.639 109.864 17.639C105.641 17.639 102.566 20.099 102.566 23.912C102.566 26.905 104.493 28.873 108.224 29.816L112.078 30.759C114.046 31.292 114.948 32.194 114.948 33.465C114.948 35.064 113.554 36.13 111.299 36.13C108.716 36.13 106.666 34.9 106.174 32.522H102.197C102.935 36.499 106.256 39.451 111.34 39.451ZM121.107 28.545C121.107 34.777 125.945 39.451 132.218 39.451C136.031 39.451 139.147 37.77 141.238 34.982L138.245 32.768C136.687 34.859 134.637 35.843 132.218 35.843C128.692 35.843 125.863 33.301 125.289 29.898H142.304V28.545C142.304 22.313 137.876 17.68 131.849 17.68C125.74 17.68 121.107 22.641 121.107 28.545ZM131.767 21.288C134.842 21.288 137.425 23.42 138.122 26.618H125.371C126.109 23.42 128.692 21.288 131.767 21.288Z" fill="white"/>
<path d="M3.328 87V50.6H28.652V56.684H10.14V65.784H28.236V71.712H10.14V80.916H28.652V87H3.328ZM43.8872 87.416C40.4552 87.416 37.5779 86.1507 35.2552 83.62C32.9325 81.0547 31.7712 77.9 31.7712 74.156C31.7712 70.3773 32.9152 67.2227 35.2032 64.692C37.5259 62.1267 40.4205 60.844 43.8872 60.844C47.6659 60.844 50.6299 62.1267 52.7792 64.692V61.26H59.2792V87H52.7792V83.62C50.5952 86.1507 47.6312 87.416 43.8872 87.416ZM40.2992 79.564C41.7205 81.02 43.4539 81.748 45.4992 81.748C47.5445 81.748 49.2605 81.02 50.6472 79.564C52.0685 78.108 52.7792 76.3053 52.7792 74.156C52.7792 71.972 52.0685 70.152 50.6472 68.696C49.2605 67.24 47.5445 66.512 45.4992 66.512C43.4539 66.512 41.7205 67.24 40.2992 68.696C38.9125 70.152 38.2192 71.972 38.2192 74.156C38.2192 76.3053 38.9125 78.108 40.2992 79.564ZM77.8131 87.104C75.0051 87.104 72.7345 86.3067 71.0011 84.712C69.2678 83.1173 68.4011 80.968 68.4011 78.264V66.928H62.7851V61.26H68.4011V53.772H74.7971V61.26H82.0251V66.928H74.7971V76.86C74.7971 79.7373 76.2878 81.176 79.2691 81.176C80.2051 81.176 81.1238 81.02 82.0251 80.708L82.7011 86.324C81.0025 86.844 79.3731 87.104 77.8131 87.104ZM97.396 87.936C94.692 87.936 92.2653 87.2947 90.116 86.012C87.9667 84.7293 86.4933 82.9613 85.696 80.708L91.312 78.94C92.3867 81.4707 94.4493 82.736 97.5 82.736C99.06 82.736 100.291 82.424 101.192 81.8C102.093 81.1413 102.544 80.2573 102.544 79.148C102.544 78.108 101.972 77.4147 100.828 77.068C99.684 76.7213 98.072 76.4613 95.992 76.288C93.9467 76.1147 92.3173 75.7853 91.104 75.3C88.1573 74.052 86.684 71.92 86.684 68.904C86.684 66.5813 87.6893 64.6227 89.7 63.028C91.7107 61.3987 94.172 60.584 97.084 60.584C99.8227 60.584 102.111 61.2253 103.948 62.508C105.785 63.7907 106.999 65.4893 107.588 67.604L102.076 69.112C101.764 68.0027 101.192 67.1187 100.36 66.46C99.528 65.7667 98.4533 65.42 97.136 65.42C95.8533 65.42 94.7787 65.7493 93.912 66.408C93.08 67.0667 92.664 67.8467 92.664 68.748C92.664 69.892 93.288 70.672 94.536 71.088C95.8187 71.504 97.5173 71.816 99.632 72.024C101.781 72.1973 103.393 72.5267 104.468 73.012C107.38 74.2253 108.836 76.288 108.836 79.2C108.836 81.8347 107.761 83.9493 105.612 85.544C103.497 87.1387 100.759 87.936 97.396 87.936Z" fill="#3EB6BA"/>
</svg>
